<svg xmlns="http://www.w3.org/2000/svg" viewBox="0 0 960 720" role="img" aria-label="CA principal in advisory office">
  <defs>
    <linearGradient id="bg" x1="0" y1="0" x2="1" y2="1">
      <stop offset="0%" stop-color="#f8f3e8"/>
      <stop offset="58%" stop-color="#dfe8f2"/>
      <stop offset="100%" stop-color="#0b2036"/>
    </linearGradient>
    <linearGradient id="suit" x1="0" y1="0" x2="1" y2="1">
      <stop offset="0%" stop-color="#14263b"/>
      <stop offset="100%" stop-color="#0b1b2f"/>
    </linearGradient>
  </defs>
  <rect width="960" height="720" fill="url(#bg)"/>
  <rect x="72" y="74" width="816" height="502" rx="18" fill="#fbf7ef" opacity="0.38"/>
  <rect x="96" y="102" width="768" height="428" rx="12" fill="#fff9ed" opacity="0.52"/>
  <rect x="586" y="134" width="220" height="18" rx="9" fill="#c7d4e2"/>
  <rect x="586" y="172" width="168" height="14" rx="7" fill="#b8944d" opacity="0.82"/>
  <rect x="586" y="218" width="236" height="132" rx="10" fill="#0f2b47" opacity="0.08"/>
  <path d="M610 314h182" stroke="#315f98" stroke-width="9" stroke-linecap="round" opacity="0.7"/>
  <path d="M610 276h118" stroke="#b8944d" stroke-width="9" stroke-linecap="round" opacity="0.85"/>
  <path d="M610 238h150" stroke="#0b2036" stroke-width="9" stroke-linecap="round" opacity="0.45"/>
  <ellipse cx="386" cy="626" rx="318" ry="44" fill="#0b1b2f" opacity="0.18"/>
  <path d="M236 588c12-132 78-202 164-202s152 70 164 202" fill="url(#suit)"/>
  <circle cx="400" cy="282" r="92" fill="#d7b18d"/>
  <path d="M308 279c22-76 72-118 142-98 46 13 78 51 80 96-70-14-134-10-222 2z" fill="#10243a"/>
  <path d="M338 430c44 36 88 36 126 0l30 158H308z" fill="#fbf7ef"/>
  <path d="M372 440l28 64 30-64 24 148H346z" fill="#b8944d" opacity="0.82"/>
  <rect x="162" y="566" width="524" height="78" rx="18" fill="#fbf7ef"/>
  <rect x="220" y="594" width="132" height="12" rx="6" fill="#c7d4e2"/>
  <rect x="382" y="594" width="172" height="12" rx="6" fill="#0b2036" opacity="0.28"/>
</svg>
